<?xml version="1.0" standalone="no"?>
<!DOCTYPE svg PUBLIC "-//W3C//DTD SVG 20010904//EN"
 "http://www.w3.org/TR/2001/REC-SVG-20010904/DTD/svg10.dtd">
<svg version="1.0" xmlns="http://www.w3.org/2000/svg"
 width="750.000000pt" height="750.000000pt" viewBox="0 0 750.000000 750.000000"
 preserveAspectRatio="xMidYMid meet">
<metadata>
Created by potrace 1.11, written by Peter Selinger 2001-2013
</metadata>
<g transform="translate(0.000000,750.000000) scale(0.100000,-0.100000)"
fill="#000000" stroke="none">
<path d="M3175 7154 c-185 -39 -319 -127 -377 -246 -25 -51 -56 -164 -47 -172
2 -3 58 9 124 25 155 38 221 41 244 10 13 -18 47 -134 87 -306 9 -37 75 -287
84 -317 6 -21 22 -50 37 -65 61 -67 120 -138 141 -171 29 -48 80 -156 88 -189
9 -34 10 -35 -171 116 -219 183 -216 180 -270 208 -75 39 -99 43 -240 43 -134
0 -151 -2 -268 -26 -161 -33 -415 -163 -640 -327 -187 -135 -306 -325 -401
-639 -28 -92 -31 -102 -46 -183 -18 -93 -20 -115 -15 -115 11 0 59 28 127 73
112 73 337 155 654 237 307 80 631 141 749 142 128 0 175 -15 407 -126 76 -36
142 -66 147 -66 6 0 12 -4 16 -9 6 -11 -27 -2 -147 38 -77 27 -168 47 -293 66
-61 10 -234 7 -291 -4 -118 -23 -218 -80 -286 -163 -44 -54 -117 -187 -223
-403 -220 -451 -254 -547 -253 -718 0 -87 22 -289 42 -404 6 -29 41 -206 52
-258 2 -11 6 -29 8 -40 2 -11 9 -40 16 -65 7 -25 14 -52 15 -60 11 -46 47
-166 56 -182 5 -10 13 -16 18 -14 23 15 66 135 111 311 73 289 109 401 190
610 58 149 107 213 230 303 41 31 100 76 130 102 30 26 66 55 79 66 13 10 29
24 36 31 6 6 88 63 181 126 173 118 319 201 334 192 5 -3 -39 -55 -98 -116
-195 -202 -199 -211 -177 -509 13 -182 22 -245 35 -271 6 -10 12 -19 13 -19 1
0 31 11 67 24 36 13 72 25 80 28 8 3 123 45 255 93 132 48 283 103 335 122
127 46 133 55 126 163 -3 47 -8 97 -11 113 -3 15 -7 38 -9 52 -22 122 -51 162
-171 233 -38 22 -86 54 -105 71 l-35 31 30 -5 c90 -14 395 -129 650 -246 84
-39 337 -134 495 -186 286 -95 329 -119 468 -260 52 -52 98 -91 104 -87 10 6
6 172 -6 244 -3 14 -7 61 -11 105 -23 266 -22 262 -62 323 -113 171 -223 299
-478 556 -165 165 -280 273 -301 282 -40 17 -81 13 -174 -15 -291 -87 -469
-139 -487 -144 -63 -15 -18 43 86 110 153 98 435 199 534 189 70 -6 104 -28
232 -152 154 -149 197 -185 233 -190 16 -3 96 9 178 25 82 16 172 32 199 35
28 4 66 9 85 11 80 12 110 14 210 15 139 1 256 -23 327 -67 45 -29 29 7 -49
112 -177 239 -323 376 -688 647 -109 81 -284 198 -295 198 -3 0 -22 10 -43 23
-20 13 -86 45 -147 72 -60 26 -137 60 -170 75 -126 57 -154 68 -172 65 -10 -2
-21 -4 -25 -4 -4 -1 -84 -79 -179 -173 -306 -308 -433 -469 -543 -691 -27 -55
-45 -78 -47 -60 0 4 -2 19 -5 32 -8 41 16 102 117 306 113 226 120 255 90 348
-11 34 -23 82 -26 107 -14 91 -26 138 -67 255 -36 106 -164 426 -203 507 -54
114 -136 178 -251 197 -83 13 -278 11 -349 -5z"/>
<path d="M4175 3704 c-162 -52 -404 -140 -525 -191 -63 -27 -74 -32 -161 -71
-47 -22 -89 -46 -92 -55 -6 -16 -5 -28 14 -135 l12 -64 141 6 c77 3 215 8 306
11 91 4 210 8 265 10 55 2 115 4 134 4 l34 1 -7 83 c-3 45 -9 127 -12 182 -4
55 -8 111 -9 125 -2 14 -3 46 -4 73 -1 26 -4 47 -8 47 -5 -1 -44 -12 -88 -26z"/>
<path d="M3877 2978 c-7 -4 -100 -8 -207 -8 -107 0 -201 -4 -209 -9 -17 -11
-17 -20 -26 -311 -3 -119 -7 -224 -9 -235 -6 -37 14 -73 42 -79 15 -3 202 -7
415 -8 349 -1 390 0 404 15 15 15 17 52 19 304 2 159 0 296 -2 305 -3 9 -15
20 -27 24 -29 10 -386 11 -400 2z"/>
<path d="M4086 2093 c-1 -1 -80 -4 -176 -7 -371 -12 -435 -17 -449 -31 -12
-11 -12 -31 -1 -127 7 -62 13 -120 15 -128 2 -8 6 -50 10 -93 8 -97 12 -116
25 -132 5 -6 58 -18 118 -24 59 -7 118 -14 132 -16 14 -2 72 -6 130 -10 58 -4
116 -8 130 -10 25 -4 218 -16 295 -19 37 -1 40 1 39 24 -6 91 -16 238 -19 264
-2 17 -6 77 -10 133 -7 120 -13 154 -26 168 -8 8 -205 16 -213 8z"/>
<path d="M3561 1308 c-4 -12 -7 -38 -6 -57 2 -20 5 -97 9 -171 4 -74 9 -157
11 -185 2 -27 7 -111 10 -185 7 -161 11 -187 33 -199 9 -4 168 -8 352 -8 290
0 337 2 353 15 18 16 19 76 2 487 -2 44 -4 105 -4 136 -1 77 -19 96 -96 104
-33 3 -71 8 -85 10 -26 4 -85 12 -160 21 -25 3 -56 7 -70 9 -14 2 -52 7 -85
10 -33 4 -67 8 -75 10 -8 2 -40 7 -70 10 -30 3 -67 8 -83 11 -21 3 -29 0 -36
-18z"/>
</g>
</svg>
